<?xml version="1.0" encoding="UTF-8"?><svg id="Layer_1" xmlns="http://www.w3.org/2000/svg" viewBox="0 0 800 340.47"><defs><style>.cls-1{fill:#fff;}</style></defs><path class="cls-1" d="m111.04,32.88h51.64l76.05,173.86h-44.83l-13.9-33.2h-88.53l-13.9,33.2h-42.56L111.04,32.88Zm55.9,109.99l-18.45-44.1c-2.27-5.41-6.34-16.81-12.2-34.22h-1.42c-5.87,17.4-9.93,28.81-12.2,34.22l-18.44,44.1h62.71Zm91.37-109.99h41.14v173.86h-41.14V32.88Zm86.31,0h25.7v152.83h95.22v21.03h-120.92V32.88Zm153.11,168.79c-9.56-5.41-14.34-15.21-14.34-29.4,0-17.06,8.12-28.77,24.35-35.1,16.23-6.34,39.67-9.51,70.33-9.51v-14.7c0-7.77-2.35-13.73-7.03-17.87-4.69-4.14-13.17-6.21-25.43-6.21-11.54,0-19.79,2.03-24.75,6.08-4.96,4.05-7.44,9.04-7.44,14.95v3.04h-23c-.18-1.01-.27-2.87-.27-5.58,0-11.83,5.23-20.95,15.69-27.37,10.46-6.42,24.44-9.63,41.93-9.63s31.11,3.47,40.31,10.39c9.2,6.93,13.8,16.73,13.8,29.4v72.23c0,3.04.9,5.28,2.71,6.72,1.8,1.44,4.06,2.15,6.76,2.15h10.82v14.45c-4.69,2.03-10.82,3.04-18.4,3.04-6.13,0-11.27-1.73-15.42-5.2-4.15-3.46-6.94-8.07-8.39-13.81h-1.89c-4.87,6.25-11.5,11.15-19.88,14.7-8.39,3.55-17.63,5.32-27.73,5.32-12.27,0-23.18-2.7-32.73-8.11Zm58.97-14.45c6.31-2.7,11.45-6.71,15.42-12.04,3.97-5.32,5.95-11.79,5.95-19.39v-9.63c-23.27,0-40.71,1.73-52.35,5.2-11.63,3.46-17.45,10.01-17.45,19.64,0,7.27,2.39,12.46,7.17,15.59,4.78,3.13,11.86,4.69,21.24,4.69,7.03,0,13.7-1.35,20.02-4.06Zm126.47,17.24c-7.67-3.55-13.84-8.79-18.53-15.71h-1.62l-2.98,17.99h-17.85V23.5h23.8v65.13h1.62c4.69-6.42,10.55-11.07,17.58-13.94,7.03-2.87,15.6-4.31,25.7-4.31,16.77,0,29.98,5.79,39.63,17.36,9.65,11.58,14.47,29.02,14.47,52.34s-4.87,41.4-14.61,52.72c-9.74,11.32-23.63,16.98-41.66,16.98-9.38,0-17.9-1.77-25.56-5.32Zm41.52-17.99c5.41-3.21,9.38-8.45,11.9-15.71,2.53-7.26,3.79-17.15,3.79-29.65v-1.01c0-12.67-1.26-22.72-3.79-30.16-2.53-7.43-6.54-12.8-12.04-16.09-5.5-3.3-12.76-4.94-21.78-4.94-12.62,0-21.91,4.31-27.86,12.93-5.95,8.62-8.93,21.38-8.93,38.27v1.01c0,16.56,2.93,29.06,8.79,37.51,5.86,8.45,15.19,12.67,28,12.67,9.2,0,16.5-1.61,21.91-4.82ZM43.04,293.97c-5.31-4.24-7.97-10.77-7.97-19.57v-42.38h10.37v42.87c0,5.74,1.76,10.1,5.29,13.07,3.53,2.97,8.53,4.45,15.01,4.45s11.61-1.5,15.17-4.5c3.56-3,5.35-7.34,5.35-13.02v-42.87h10.37v42.38c0,8.81-2.66,15.33-7.97,19.57-5.31,4.24-12.95,6.36-22.92,6.36s-17.39-2.12-22.7-6.36Zm76.18,1.47c-5.75-3.26-8.62-8.35-8.62-15.27l.11-1.96h10.26c-.15.91-.22,1.6-.22,2.06,0,3.98,1.84,7,5.51,9.05,3.67,2.06,8.57,3.08,14.68,3.08,6.84,0,12.08-.96,15.72-2.89,3.64-1.93,5.46-4.68,5.46-8.27,0-2.41-.95-4.42-2.84-6.02-1.89-1.6-4.28-2.85-7.15-3.77-2.88-.91-6.75-1.92-11.62-3.03-6.04-1.37-10.91-2.69-14.62-3.97-3.71-1.27-6.88-3.16-9.5-5.68-2.62-2.51-3.93-5.82-3.93-9.93,0-5.87,2.73-10.34,8.18-13.41,5.46-3.06,12.44-4.6,20.96-4.6s15.42,1.55,20.73,4.65,7.97,7.85,7.97,14.24v1.17h-10.15v-1.47c0-3.33-1.69-5.94-5.08-7.83-3.38-1.89-7.77-2.84-13.15-2.84-5.75,0-10.35.78-13.81,2.35-3.46,1.57-5.18,3.91-5.18,7.05,0,2.28.93,4.15,2.78,5.58s4.15,2.59,6.88,3.47,6.53,1.88,11.4,2.99c6.04,1.37,10.97,2.71,14.79,4.01,3.82,1.3,7.06,3.21,9.71,5.73,2.66,2.51,3.98,5.79,3.98,9.84,0,7.18-2.78,12.4-8.35,15.66-5.57,3.26-13.12,4.89-22.65,4.89s-16.52-1.63-22.26-4.89Zm67.45-63.42h36.13c6.26,0,11.3,1.5,15.12,4.5,3.82,3,5.73,6.98,5.73,11.94,0,3.78-1.17,7.05-3.49,9.79-2.33,2.74-5.31,4.63-8.95,5.68v.39c4.44.91,7.97,2.81,10.59,5.68,2.62,2.87,3.93,6.66,3.93,11.35,0,6-2.09,10.47-6.28,13.41-4.18,2.93-9.73,4.4-16.64,4.4h-36.13v-67.14Zm34.05,28.68c3.71,0,6.7-.96,8.95-2.89,2.25-1.92,3.38-4.42,3.38-7.49,0-3.39-1.02-5.94-3.06-7.63s-4.84-2.54-8.4-2.54h-24.56v20.55h23.68Zm1.86,30.34c8.37,0,12.55-3.62,12.55-10.87s-4.44-11.35-13.31-11.35h-24.78v22.22h25.54Zm67.23-59.02h38.96c7.49,0,13.24,1.73,17.24,5.19,4,3.46,6,8.09,6,13.9,0,4.57-1.22,8.52-3.66,11.84-2.44,3.33-5.8,5.71-10.1,7.15l17.25,29.07h-11.57l-16.26-27.7h-27.5v27.7h-10.37v-67.14Zm38.42,31.32c4.07,0,7.31-1.08,9.71-3.23,2.4-2.15,3.6-5.12,3.6-8.91,0-3.52-1.13-6.25-3.39-8.17-2.26-1.92-5.57-2.89-9.93-2.89h-28.05v23.2h28.05Zm41.47,33.86c-3.86-2.09-5.79-5.87-5.79-11.35,0-6.59,3.28-11.11,9.82-13.56,6.55-2.45,16.01-3.67,28.38-3.67v-5.68c0-3-.95-5.3-2.84-6.9-1.89-1.6-5.31-2.4-10.26-2.4-4.66,0-7.99.78-9.99,2.35-2,1.56-3,3.49-3,5.77v1.17h-9.28c-.07-.39-.11-1.11-.11-2.15,0-4.57,2.11-8.09,6.33-10.57,4.22-2.48,9.86-3.72,16.92-3.72s12.55,1.34,16.26,4.01c3.71,2.68,5.57,6.46,5.57,11.35v27.89c0,1.17.36,2.04,1.09,2.6.73.55,1.64.83,2.73.83h4.37v5.58c-1.89.78-4.37,1.17-7.42,1.17-2.48,0-4.55-.67-6.22-2.01-1.67-1.34-2.8-3.12-3.38-5.34h-.76c-1.96,2.41-4.64,4.31-8.02,5.68-3.38,1.37-7.11,2.06-11.19,2.06-4.95,0-9.35-1.04-13.21-3.13Zm23.79-5.58c2.55-1.04,4.62-2.6,6.22-4.65,1.6-2.06,2.4-4.55,2.4-7.49v-3.72c-9.39,0-16.43.67-21.12,2.01-4.69,1.34-7.04,3.87-7.04,7.59,0,2.8.97,4.81,2.89,6.02,1.93,1.21,4.78,1.81,8.57,1.81,2.84,0,5.53-.52,8.08-1.56Zm36.89,2.15c-3.93-4.37-5.89-11.16-5.89-20.36s1.95-15.74,5.84-20.21c3.89-4.47,9.22-6.71,15.99-6.71,4.08,0,7.53.56,10.37,1.66,2.84,1.11,5.2,2.91,7.09,5.38h.66v-25.15h9.6v70.77h-7.2l-1.2-6.95h-.65c-1.89,2.67-4.38,4.7-7.48,6.07s-6.53,2.06-10.31,2.06c-7.28,0-12.88-2.19-16.81-6.56Zm30.5-5.48c2.36-3.26,3.55-8.09,3.55-14.48v-.39c0-6.52-1.2-11.45-3.6-14.78-2.4-3.33-6.15-4.99-11.24-4.99-3.64,0-6.57.64-8.79,1.91-2.22,1.27-3.84,3.34-4.86,6.21-1.02,2.87-1.53,6.75-1.53,11.65v.39c0,4.83.51,8.65,1.53,11.45,1.02,2.81,2.62,4.83,4.8,6.07,2.18,1.24,5.13,1.86,8.84,1.86,5.16,0,8.93-1.63,11.29-4.89Zm27.78-59.9h9.49v9.3h-9.49v-9.3Zm0,19.28h9.61v51.48h-9.61v-51.48Zm27.39,46.05c-4.44-4.41-6.66-11.17-6.66-20.31s2.22-15.9,6.66-20.31c4.44-4.4,11.06-6.61,19.86-6.61s15.42,2.2,19.86,6.61c4.44,4.41,6.66,11.18,6.66,20.31s-2.22,15.9-6.66,20.31c-4.44,4.4-11.06,6.61-19.86,6.61s-15.43-2.2-19.86-6.61Zm32.52-5.09c2.62-3.04,3.93-7.98,3.93-14.83v-.78c0-6.85-1.31-11.79-3.93-14.83-2.62-3.03-6.84-4.55-12.66-4.55s-10.04,1.52-12.66,4.55c-2.62,3.04-3.93,7.98-3.93,14.83v.78c0,6.85,1.31,11.79,3.93,14.83,2.62,3.03,6.84,4.55,12.66,4.55s10.04-1.52,12.66-4.55Zm24.99-60.24h9.61v70.77h-9.61v-70.77Zm27.39,65.33c-4.44-4.41-6.66-11.17-6.66-20.31s2.22-15.9,6.66-20.31c4.44-4.4,11.06-6.61,19.86-6.61s15.42,2.2,19.86,6.61c4.44,4.41,6.66,11.18,6.66,20.31s-2.22,15.9-6.66,20.31c-4.44,4.4-11.06,6.61-19.86,6.61s-15.43-2.2-19.86-6.61Zm32.52-5.09c2.62-3.04,3.93-7.98,3.93-14.83v-.78c0-6.85-1.31-11.79-3.93-14.83-2.62-3.03-6.84-4.55-12.66-4.55s-10.04,1.52-12.66,4.55c-2.62,3.04-3.93,7.98-3.93,14.83v.78c0,6.85,1.31,11.79,3.93,14.83,2.62,3.03,6.84,4.55,12.66,4.55s10.04-1.52,12.66-4.55Zm24.28,25.45c-3.09-1.93-4.64-5.11-4.64-9.54,0-5.35,3.09-9,9.28-10.96-1.74-.85-3.18-1.94-4.31-3.28-1.13-1.34-1.69-2.89-1.69-4.65,0-2.54,1-4.47,3-5.78,2-1.3,4.2-2.22,6.6-2.74-2.4-1.57-4.29-3.49-5.67-5.78-1.38-2.28-2.07-4.8-2.07-7.54,0-5.48,2.07-9.74,6.22-12.77,4.15-3.04,9.82-4.55,17.03-4.55,4,0,7.64.59,10.91,1.76,4.73-2.02,7.49-4.99,8.29-8.91h9.17c0,3.07-1,5.71-3,7.93-2,2.22-4.71,3.69-8.13,4.41,4.07,3.26,6.11,7.31,6.11,12.14,0,5.48-2.09,9.74-6.28,12.77-4.18,3.04-9.88,4.55-17.08,4.55h-9.17c-1.96,0-3.48.39-4.53,1.17-1.05.78-1.58,1.79-1.58,3.03s.53,2.25,1.58,3.03,2.57,1.17,4.53,1.17h23.03c4.51,0,8.08,1.22,10.7,3.67,2.62,2.45,3.93,5.4,3.93,8.86,0,2.48-.62,4.86-1.86,7.14s-3.22,4.14-5.95,5.58c-2.73,1.43-6.17,2.15-10.31,2.15h-23.14c-4.22,0-7.88-.96-10.97-2.89Zm34.32-4.06c2.4,0,4.4-.59,6-1.76s2.4-2.74,2.4-4.7-.64-3.51-1.91-4.65c-1.27-1.14-2.97-1.71-5.07-1.71h-23.9c-2.11,0-3.79.57-5.02,1.71-1.24,1.14-1.86,2.69-1.86,4.65s.62,3.52,1.86,4.7c1.24,1.17,2.91,1.76,5.02,1.76h22.48Zm-.22-38.32c2.33-1.86,3.49-4.49,3.49-7.88s-1.17-6.02-3.49-7.88c-2.33-1.86-5.75-2.79-10.26-2.79s-7.93.93-10.26,2.79c-2.33,1.86-3.49,4.49-3.49,7.88s1.16,6.02,3.49,7.88c2.33,1.86,5.75,2.79,10.26,2.79s7.93-.93,10.26-2.79Zm25.1,44.48v-5.58h3.82c7.42,0,12.3-3.82,14.63-11.45l-22.16-51.48h10.15l10.7,25.74c1.53,3.65,3.6,9.04,6.22,16.15h.55c2.11-6.66,3.89-12.04,5.35-16.15l9.17-25.74h9.61l-18.88,48.84c-2.55,6.52-5.44,11.57-8.68,15.12-3.24,3.56-7.51,5.34-12.82,5.34-3.2,0-5.75-.26-7.64-.78Z"/></svg>